<svg xmlns="http://www.w3.org/2000/svg" width="1920" height="1080"><path d="M-217,-208L-80,-212L209,-223Z" fill="#eef8fb" stroke="#eef8fb" stroke-width="1.51"/><path d="M83,1261L-258,1248L547,1299Z" fill="#759f84" stroke="#759f84" stroke-width="1.51"/><path d="M547,1299L-258,1248L663,1309Z" fill="#6c9b7d" stroke="#6c9b7d" stroke-width="1.51"/><path d="M511,-229L767,-205L1288,-229Z" fill="#b8e3d5" stroke="#b8e3d5" stroke-width="1.51"/><path d="M1298,1268L994,1297L1525,1292Z" fill="#227c48" stroke="#227c48" stroke-width="1.51"/><path d="M1525,1292L994,1297L1697,1318Z" fill="#1b733e" stroke="#1b733e" stroke-width="1.51"/><path d="M994,1297L663,1309L1697,1318Z" fill="#2d7f52" stroke="#2d7f52" stroke-width="1.51"/><path d="M511,-229L1288,-229L2022,-239Z" fill="#a0d5b7" stroke="#a0d5b7" stroke-width="1.51"/><path d="M1643,-189L1882,-198L2022,-239Z" fill="#87b491" stroke="#87b491" stroke-width="1.51"/><path d="M1288,-229L1643,-189L2022,-239Z" fill="#90bf9a" stroke="#90bf9a" stroke-width="1.51"/><path d="M2104,669L1943,732L2110,877Z" fill="#227f49" stroke="#227f49" stroke-width="1.51"/><path d="M2085,292L2075,376L2110,540Z" fill="#4b8f6b" stroke="#4b8f6b" stroke-width="1.51"/><path d="M2128,-46L2032,6L2141,130Z" fill="#729e82" stroke="#729e82" stroke-width="1.51"/><path d="M2032,6L2019,74L2141,130Z" fill="#71a082" stroke="#71a082" stroke-width="1.51"/><path d="M2085,292L2110,540L2141,130Z" fill="#549171" stroke="#549171" stroke-width="1.51"/><path d="M2134,-176L2128,-46L2141,130Z" fill="#759c83" stroke="#759c83" stroke-width="1.51"/><path d="M2110,540L2104,669L2146,1076Z" fill="#217a46" stroke="#217a46" stroke-width="1.51"/><path d="M2104,669L2110,877L2146,1076Z" fill="#187039" stroke="#187039" stroke-width="1.51"/><path d="M2110,877L2117,996L2146,1076Z" fill="#0e682f" stroke="#0e682f" stroke-width="1.51"/><path d="M2141,130L2110,540L2146,1076Z" fill="#338359" stroke="#338359" stroke-width="1.51"/><path d="M1927,1208L1827,1229L2160,1291Z" fill="#005c25" stroke="#005c25" stroke-width="1.51"/><path d="M1827,1229L1697,1318L2160,1291Z" fill="#005e25" stroke="#005e25" stroke-width="1.51"/><path d="M2023,1173L1927,1208L2160,1291Z" fill="#005924" stroke="#005924" stroke-width="1.51"/><path d="M2146,1076L2023,1173L2160,1291Z" fill="#005923" stroke="#005923" stroke-width="1.51"/><path d="M2141,130L2146,1076L2160,1291Z" fill="#1b733d" stroke="#1b733d" stroke-width="1.51"/><path d="M2019,74L1927,222L2085,292Z" fill="#679f7d" stroke="#679f7d" stroke-width="1.51"/><path d="M2032,6L2128,-46L2134,-176Z" fill="#78a086" stroke="#78a086" stroke-width="1.51"/><path d="M2022,-239L2032,6L2134,-176Z" fill="#7ca488" stroke="#7ca488" stroke-width="1.51"/><path d="M2019,74L2085,292L2141,130Z" fill="#699b7c" stroke="#699b7c" stroke-width="1.51"/><path d="M2117,996L2023,1173L2146,1076Z" fill="#056329" stroke="#056329" stroke-width="1.51"/><path d="M1943,732L1937,849L2110,877Z" fill="#1e7e43" stroke="#1e7e43" stroke-width="1.51"/><path d="M1958,577L2104,669L2110,540Z" fill="#34875a" stroke="#34875a" stroke-width="1.51"/><path d="M2075,376L1958,577L2110,540Z" fill="#3f8d65" stroke="#3f8d65" stroke-width="1.51"/><path d="M2110,877L1940,925L2117,996Z" fill="#137034" stroke="#137034" stroke-width="1.51"/><path d="M1940,925L2023,1173L2117,996Z" fill="#0a6b2e" stroke="#0a6b2e" stroke-width="1.51"/><path d="M1940,925L1852,1068L2023,1173Z" fill="#086f2f" stroke="#086f2f" stroke-width="1.51"/><path d="M2022,-239L1882,-198L2032,6Z" fill="#80aa8b" stroke="#80aa8b" stroke-width="1.51"/><path d="M1978,345L1881,484L2075,376Z" fill="#4e976f" stroke="#4e976f" stroke-width="1.51"/><path d="M1881,484L1958,577L2075,376Z" fill="#439468" stroke="#439468" stroke-width="1.51"/><path d="M1937,849L1940,925L2110,877Z" fill="#18793c" stroke="#18793c" stroke-width="1.51"/><path d="M1958,577L1943,732L2104,669Z" fill="#2e8855" stroke="#2e8855" stroke-width="1.51"/><path d="M1882,-198L1864,-26L2032,6Z" fill="#7ead8c" stroke="#7ead8c" stroke-width="1.51"/><path d="M1978,345L2075,376L2085,292Z" fill="#549572" stroke="#549572" stroke-width="1.51"/><path d="M1927,222L1978,345L2085,292Z" fill="#5c9c77" stroke="#5c9c77" stroke-width="1.51"/><path d="M1288,-229L1486,-177L1643,-189Z" fill="#96c9a6" stroke="#96c9a6" stroke-width="1.51"/><path d="M1888,111L1927,222L2019,74Z" fill="#71a783" stroke="#71a783" stroke-width="1.51"/><path d="M1852,1068L1927,1208L2023,1173Z" fill="#00682a" stroke="#00682a" stroke-width="1.51"/><path d="M1864,-26L2019,74L2032,6Z" fill="#77a887" stroke="#77a887" stroke-width="1.51"/><path d="M1864,-26L1888,111L2019,74Z" fill="#77ab87" stroke="#77ab87" stroke-width="1.51"/><path d="M1865,827L1937,849L1943,732Z" fill="#218547" stroke="#218547" stroke-width="1.51"/><path d="M1833,715L1943,732L1958,577Z" fill="#2e8e56" stroke="#2e8e56" stroke-width="1.51"/><path d="M1927,222L1851,285L1978,345Z" fill="#5fa27a" stroke="#5fa27a" stroke-width="1.51"/><path d="M1851,285L1881,484L1978,345Z" fill="#539e74" stroke="#539e74" stroke-width="1.51"/><path d="M1851,285L1772,375L1881,484Z" fill="#55a276" stroke="#55a276" stroke-width="1.51"/><path d="M1881,484L1833,715L1958,577Z" fill="#379461" stroke="#379461" stroke-width="1.51"/><path d="M1852,1068L1827,1229L1927,1208Z" fill="#016a2b" stroke="#016a2b" stroke-width="1.51"/><path d="M1937,849L1865,827L1940,925Z" fill="#1b8040" stroke="#1b8040" stroke-width="1.51"/><path d="M1783,1030L1852,1068L1940,925Z" fill="#0f7735" stroke="#0f7735" stroke-width="1.51"/><path d="M1833,715L1865,827L1943,732Z" fill="#258b4e" stroke="#258b4e" stroke-width="1.51"/><path d="M1865,827L1741,953L1940,925Z" fill="#1a803e" stroke="#1a803e" stroke-width="1.51"/><path d="M1741,953L1783,1030L1940,925Z" fill="#157c39" stroke="#157c39" stroke-width="1.51"/><path d="M1737,-99L1864,-26L1882,-198Z" fill="#83b491" stroke="#83b491" stroke-width="1.51"/><path d="M1888,111L1851,285L1927,222Z" fill="#6aa881" stroke="#6aa881" stroke-width="1.51"/><path d="M1627,527L1833,715L1881,484Z" fill="#3d9a67" stroke="#3d9a67" stroke-width="1.51"/><path d="M1741,412L1627,527L1881,484Z" fill="#4ba172" stroke="#4ba172" stroke-width="1.51"/><path d="M1772,375L1741,412L1881,484Z" fill="#50a174" stroke="#50a174" stroke-width="1.51"/><path d="M1864,-26L1669,154L1888,111Z" fill="#79b18b" stroke="#79b18b" stroke-width="1.51"/><path d="M1669,154L1724,221L1888,111Z" fill="#75b189" stroke="#75b189" stroke-width="1.51"/><path d="M1724,221L1851,285L1888,111Z" fill="#6dac84" stroke="#6dac84" stroke-width="1.51"/><path d="M1688,1175L1827,1229L1852,1068Z" fill="#066f2f" stroke="#066f2f" stroke-width="1.51"/><path d="M1643,-189L1737,-99L1882,-198Z" fill="#89b994" stroke="#89b994" stroke-width="1.51"/><path d="M1627,527L1685,741L1833,715Z" fill="#379960" stroke="#379960" stroke-width="1.51"/><path d="M1783,1030L1688,1175L1852,1068Z" fill="#0d7633" stroke="#0d7633" stroke-width="1.51"/><path d="M1737,-99L1669,154L1864,-26Z" fill="#80b591" stroke="#80b591" stroke-width="1.51"/><path d="M1651,873L1741,953L1865,827Z" fill="#208744" stroke="#208744" stroke-width="1.51"/><path d="M1685,741L1651,873L1865,827Z" fill="#278e4e" stroke="#278e4e" stroke-width="1.51"/><path d="M1833,715L1685,741L1865,827Z" fill="#289052" stroke="#289052" stroke-width="1.51"/><path d="M1724,221L1772,375L1851,285Z" fill="#62a97f" stroke="#62a97f" stroke-width="1.51"/><path d="M1688,1175L1697,1318L1827,1229Z" fill="#08692d" stroke="#08692d" stroke-width="1.51"/><path d="M1515,-38L1669,154L1737,-99Z" fill="#84bb96" stroke="#84bb96" stroke-width="1.51"/><path d="M1527,1013L1688,1175L1741,953Z" fill="#187f3b" stroke="#187f3b" stroke-width="1.51"/><path d="M1724,221L1741,412L1772,375Z" fill="#5ea87e" stroke="#5ea87e" stroke-width="1.51"/><path d="M1741,953L1688,1175L1783,1030Z" fill="#137a37" stroke="#137a37" stroke-width="1.51"/><path d="M1724,221L1538,260L1741,412Z" fill="#66ae84" stroke="#66ae84" stroke-width="1.51"/><path d="M1515,-38L1570,142L1669,154Z" fill="#81bc95" stroke="#81bc95" stroke-width="1.51"/><path d="M1627,527L1520,653L1685,741Z" fill="#3ca067" stroke="#3ca067" stroke-width="1.51"/><path d="M1651,873L1527,1013L1741,953Z" fill="#208742" stroke="#208742" stroke-width="1.51"/><path d="M1547,423L1627,527L1741,412Z" fill="#52a879" stroke="#52a879" stroke-width="1.51"/><path d="M1538,260L1547,423L1741,412Z" fill="#5fae81" stroke="#5fae81" stroke-width="1.51"/><path d="M1527,1013L1542,1164L1688,1175Z" fill="#157d39" stroke="#157d39" stroke-width="1.51"/><path d="M1643,-189L1515,-38L1737,-99Z" fill="#8bbe9a" stroke="#8bbe9a" stroke-width="1.51"/><path d="M1669,154L1538,260L1724,221Z" fill="#72b48b" stroke="#72b48b" stroke-width="1.51"/><path d="M1512,801L1651,873L1685,741Z" fill="#2c9454" stroke="#2c9454" stroke-width="1.51"/><path d="M1542,1164L1525,1292L1688,1175Z" fill="#127435" stroke="#127435" stroke-width="1.51"/><path d="M1688,1175L1525,1292L1697,1318Z" fill="#0e6b30" stroke="#0e6b30" stroke-width="1.51"/><path d="M1570,142L1538,260L1669,154Z" fill="#78b890" stroke="#78b890" stroke-width="1.51"/><path d="M1520,653L1512,801L1685,741Z" fill="#349d5f" stroke="#349d5f" stroke-width="1.51"/><path d="M1505,540L1520,653L1627,527Z" fill="#46a672" stroke="#46a672" stroke-width="1.51"/><path d="M1486,-177L1515,-38L1643,-189Z" fill="#90c39f" stroke="#90c39f" stroke-width="1.51"/><path d="M1512,801L1527,1013L1651,873Z" fill="#278f4b" stroke="#278f4b" stroke-width="1.51"/><path d="M1547,423L1505,540L1627,527Z" fill="#4faa79" stroke="#4faa79" stroke-width="1.51"/><path d="M1512,801L1357,963L1527,1013Z" fill="#2a924f" stroke="#2a924f" stroke-width="1.51"/><path d="M1538,260L1390,349L1547,423Z" fill="#66b68c" stroke="#66b68c" stroke-width="1.51"/><path d="M1515,-38L1386,-5L1570,142Z" fill="#89c39f" stroke="#89c39f" stroke-width="1.51"/><path d="M1386,-5L1343,128L1570,142Z" fill="#88c5a1" stroke="#88c5a1" stroke-width="1.51"/><path d="M1354,218L1538,260L1570,142Z" fill="#7abd96" stroke="#7abd96" stroke-width="1.51"/><path d="M1343,128L1354,218L1570,142Z" fill="#82c39e" stroke="#82c39e" stroke-width="1.51"/><path d="M1427,780L1357,963L1512,801Z" fill="#329b5c" stroke="#329b5c" stroke-width="1.51"/><path d="M1411,722L1427,780L1512,801Z" fill="#37a164" stroke="#37a164" stroke-width="1.51"/><path d="M1411,722L1512,801L1520,653Z" fill="#39a266" stroke="#39a266" stroke-width="1.51"/><path d="M1346,1232L1525,1292L1542,1164Z" fill="#19783c" stroke="#19783c" stroke-width="1.51"/><path d="M1347,1176L1346,1232L1542,1164Z" fill="#1d7f42" stroke="#1d7f42" stroke-width="1.51"/><path d="M1527,1013L1347,1176L1542,1164Z" fill="#1c8342" stroke="#1c8342" stroke-width="1.51"/><path d="M1400,542L1505,540L1547,423Z" fill="#51ad7f" stroke="#51ad7f" stroke-width="1.51"/><path d="M1390,349L1400,542L1547,423Z" fill="#5cb388" stroke="#5cb388" stroke-width="1.51"/><path d="M1357,963L1347,1176L1527,1013Z" fill="#258c4b" stroke="#258c4b" stroke-width="1.51"/><path d="M1486,-177L1375,-137L1515,-38Z" fill="#92c8a6" stroke="#92c8a6" stroke-width="1.51"/><path d="M1346,1232L1298,1268L1525,1292Z" fill="#1d7840" stroke="#1d7840" stroke-width="1.51"/><path d="M1354,218L1390,349L1538,260Z" fill="#72bd96" stroke="#72bd96" stroke-width="1.51"/><path d="M1505,540L1400,542L1520,653Z" fill="#48aa78" stroke="#48aa78" stroke-width="1.51"/><path d="M1375,-137L1386,-5L1515,-38Z" fill="#92c9a9" stroke="#92c9a9" stroke-width="1.51"/><path d="M1400,542L1411,722L1520,653Z" fill="#44a973" stroke="#44a973" stroke-width="1.51"/><path d="M1288,-229L1375,-137L1486,-177Z" fill="#99cdad" stroke="#99cdad" stroke-width="1.51"/><path d="M511,-229L632,-207L767,-205Z" fill="#c8eae3" stroke="#c8eae3" stroke-width="1.51"/><path d="M767,-205L938,-139L1288,-229Z" fill="#acddcc" stroke="#acddcc" stroke-width="1.51"/><path d="M1354,218L1305,282L1390,349Z" fill="#75c29c" stroke="#75c29c" stroke-width="1.51"/><path d="M1390,349L1287,407L1400,542Z" fill="#60b98f" stroke="#60b98f" stroke-width="1.51"/><path d="M1400,542L1246,567L1411,722Z" fill="#4aaf7e" stroke="#4aaf7e" stroke-width="1.51"/><path d="M1246,567L1206,672L1411,722Z" fill="#49b17e" stroke="#49b17e" stroke-width="1.51"/><path d="M1411,722L1198,840L1427,780Z" fill="#3ba66b" stroke="#3ba66b" stroke-width="1.51"/><path d="M1198,840L1357,963L1427,780Z" fill="#369f62" stroke="#369f62" stroke-width="1.51"/><path d="M1191,1030L1255,1175L1347,1176Z" fill="#288e51" stroke="#288e51" stroke-width="1.51"/><path d="M1191,1030L1347,1176L1357,963Z" fill="#2a9253" stroke="#2a9253" stroke-width="1.51"/><path d="M1293,108L1343,128L1386,-5Z" fill="#8ccba9" stroke="#8ccba9" stroke-width="1.51"/><path d="M1206,672L1198,840L1411,722Z" fill="#41ad75" stroke="#41ad75" stroke-width="1.51"/><path d="M1375,-137L1205,-74L1386,-5Z" fill="#96cfb1" stroke="#96cfb1" stroke-width="1.51"/><path d="M1287,407L1246,567L1400,542Z" fill="#58b78c" stroke="#58b78c" stroke-width="1.51"/><path d="M1305,282L1287,407L1390,349Z" fill="#6dbf99" stroke="#6dbf99" stroke-width="1.51"/><path d="M1205,-74L1293,108L1386,-5Z" fill="#93cfb1" stroke="#93cfb1" stroke-width="1.51"/><path d="M1288,-229L1205,-74L1375,-137Z" fill="#9cd3b5" stroke="#9cd3b5" stroke-width="1.51"/><path d="M938,-139L1156,-140L1288,-229Z" fill="#a5d8c2" stroke="#a5d8c2" stroke-width="1.51"/><path d="M1343,128L1293,108L1354,218Z" fill="#87c9a7" stroke="#87c9a7" stroke-width="1.51"/><path d="M1198,840L1191,1030L1357,963Z" fill="#349c5e" stroke="#349c5e" stroke-width="1.51"/><path d="M1255,1175L1346,1232L1347,1176Z" fill="#23844a" stroke="#23844a" stroke-width="1.51"/><path d="M1293,108L1305,282L1354,218Z" fill="#81c7a4" stroke="#81c7a4" stroke-width="1.51"/><path d="M1255,1175L1298,1268L1346,1232Z" fill="#228149" stroke="#228149" stroke-width="1.51"/><path d="M1126,955L1191,1030L1198,840Z" fill="#3a9f64" stroke="#3a9f64" stroke-width="1.51"/><path d="M1109,403L1246,567L1287,407Z" fill="#63bf98" stroke="#63bf98" stroke-width="1.51"/><path d="M1156,-140L1205,-74L1288,-229Z" fill="#9fd5bb" stroke="#9fd5bb" stroke-width="1.51"/><path d="M1205,-74L1099,-5L1293,108Z" fill="#98d2b8" stroke="#98d2b8" stroke-width="1.51"/><path d="M1067,66L1063,280L1293,108Z" fill="#90d1b6" stroke="#90d1b6" stroke-width="1.51"/><path d="M1060,1228L994,1297L1298,1268Z" fill="#2e8454" stroke="#2e8454" stroke-width="1.51"/><path d="M1109,403L1287,407L1305,282Z" fill="#6fc3a0" stroke="#6fc3a0" stroke-width="1.51"/><path d="M1063,280L1109,403L1305,282Z" fill="#78c8a9" stroke="#78c8a9" stroke-width="1.51"/><path d="M1293,108L1063,280L1305,282Z" fill="#82cbab" stroke="#82cbab" stroke-width="1.51"/><path d="M1255,1175L1060,1228L1298,1268Z" fill="#298551" stroke="#298551" stroke-width="1.51"/><path d="M1132,885L1126,955L1198,840Z" fill="#3fa46b" stroke="#3fa46b" stroke-width="1.51"/><path d="M1099,-5L1067,66L1293,108Z" fill="#97d3b9" stroke="#97d3b9" stroke-width="1.51"/><path d="M1109,403L1050,566L1246,567Z" fill="#60be99" stroke="#60be99" stroke-width="1.51"/><path d="M1161,647L1206,672L1246,567Z" fill="#50b687" stroke="#50b687" stroke-width="1.51"/><path d="M1191,1030L1074,1108L1255,1175Z" fill="#309259" stroke="#309259" stroke-width="1.51"/><path d="M1074,1108L1060,1228L1255,1175Z" fill="#308e59" stroke="#308e59" stroke-width="1.51"/><path d="M1050,566L1161,647L1246,567Z" fill="#57ba8f" stroke="#57ba8f" stroke-width="1.51"/><path d="M1161,647L1013,713L1198,840Z" fill="#4bb381" stroke="#4bb381" stroke-width="1.51"/><path d="M1013,713L1132,885L1198,840Z" fill="#47ac78" stroke="#47ac78" stroke-width="1.51"/><path d="M1161,647L1198,840L1206,672Z" fill="#48b27e" stroke="#48b27e" stroke-width="1.51"/><path d="M1156,-140L1099,-5L1205,-74Z" fill="#9fd6bf" stroke="#9fd6bf" stroke-width="1.51"/><path d="M1126,955L1074,1108L1191,1030Z" fill="#389a61" stroke="#389a61" stroke-width="1.51"/><path d="M990,492L1050,566L1109,403Z" fill="#68c2a2" stroke="#68c2a2" stroke-width="1.51"/><path d="M938,-139L1099,-5L1156,-140Z" fill="#a4d9c6" stroke="#a4d9c6" stroke-width="1.51"/><path d="M1050,566L1013,713L1161,647Z" fill="#57b98f" stroke="#57b98f" stroke-width="1.51"/><path d="M997,67L1063,280L1067,66Z" fill="#97d5be" stroke="#97d5be" stroke-width="1.51"/><path d="M1063,280L1005,385L1109,403Z" fill="#79c9ad" stroke="#79c9ad" stroke-width="1.51"/><path d="M990,926L1074,1108L1126,955Z" fill="#3e9e68" stroke="#3e9e68" stroke-width="1.51"/><path d="M990,926L1126,955L1132,885Z" fill="#41a46d" stroke="#41a46d" stroke-width="1.51"/><path d="M1013,713L990,926L1132,885Z" fill="#49ac7a" stroke="#49ac7a" stroke-width="1.51"/><path d="M928,880L990,926L1013,713Z" fill="#4dae7f" stroke="#4dae7f" stroke-width="1.51"/><path d="M938,-139L961,9L1099,-5Z" fill="#a5daca" stroke="#a5daca" stroke-width="1.51"/><path d="M1005,385L990,492L1109,403Z" fill="#71c6a9" stroke="#71c6a9" stroke-width="1.51"/><path d="M997,67L933,294L1063,280Z" fill="#90d3bc" stroke="#90d3bc" stroke-width="1.51"/><path d="M997,67L1067,66L1099,-5Z" fill="#9cd6c2" stroke="#9cd6c2" stroke-width="1.51"/><path d="M961,9L997,67L1099,-5Z" fill="#a0d8c5" stroke="#a0d8c5" stroke-width="1.51"/><path d="M849,1063L952,1150L990,926Z" fill="#459f6e" stroke="#459f6e" stroke-width="1.51"/><path d="M952,1150L1060,1228L1074,1108Z" fill="#379260" stroke="#379260" stroke-width="1.51"/><path d="M990,926L952,1150L1074,1108Z" fill="#3e9b68" stroke="#3e9b68" stroke-width="1.51"/><path d="M933,294L1005,385L1063,280Z" fill="#81cdb5" stroke="#81cdb5" stroke-width="1.51"/><path d="M821,657L1013,713L1050,566Z" fill="#5dbc98" stroke="#5dbc98" stroke-width="1.51"/><path d="M952,1150L994,1297L1060,1228Z" fill="#378c5f" stroke="#378c5f" stroke-width="1.51"/><path d="M990,492L821,657L1050,566Z" fill="#64c1a1" stroke="#64c1a1" stroke-width="1.51"/><path d="M836,953L849,1063L990,926Z" fill="#4ca675" stroke="#4ca675" stroke-width="1.51"/><path d="M817,513L821,657L990,492Z" fill="#6dc5a7" stroke="#6dc5a7" stroke-width="1.51"/><path d="M811,1220L663,1309L994,1297Z" fill="#448c66" stroke="#448c66" stroke-width="1.51"/><path d="M790,149L933,294L997,67Z" fill="#9bd8c6" stroke="#9bd8c6" stroke-width="1.51"/><path d="M854,858L928,880L1013,713Z" fill="#52b285" stroke="#52b285" stroke-width="1.51"/><path d="M821,657L854,858L1013,713Z" fill="#5aba90" stroke="#5aba90" stroke-width="1.51"/><path d="M786,413L817,513L990,492Z" fill="#78c9af" stroke="#78c9af" stroke-width="1.51"/><path d="M952,1150L811,1220L994,1297Z" fill="#3d8e64" stroke="#3d8e64" stroke-width="1.51"/><path d="M786,413L990,492L1005,385Z" fill="#78c9b0" stroke="#78c9b0" stroke-width="1.51"/><path d="M933,294L786,413L1005,385Z" fill="#81ceb7" stroke="#81ceb7" stroke-width="1.51"/><path d="M928,880L836,953L990,926Z" fill="#4da979" stroke="#4da979" stroke-width="1.51"/><path d="M961,9L790,149L997,67Z" fill="#a3daca" stroke="#a3daca" stroke-width="1.51"/><path d="M266,1240L83,1261L547,1299Z" fill="#6e9d7f" stroke="#6e9d7f" stroke-width="1.51"/><path d="M-29,1245L-258,1248L83,1261Z" fill="#7ca387" stroke="#7ca387" stroke-width="1.51"/><path d="M425,1259L266,1240L547,1299Z" fill="#669a7b" stroke="#669a7b" stroke-width="1.51"/><path d="M790,149L773,209L933,294Z" fill="#9bd8c7" stroke="#9bd8c7" stroke-width="1.51"/><path d="M938,-139L810,-40L961,9Z" fill="#acded1" stroke="#acded1" stroke-width="1.51"/><path d="M810,-40L790,149L961,9Z" fill="#aaded0" stroke="#aaded0" stroke-width="1.51"/><path d="M849,1063L811,1220L952,1150Z" fill="#45996b" stroke="#45996b" stroke-width="1.51"/><path d="M767,-205L810,-40L938,-139Z" fill="#b4e1d5" stroke="#b4e1d5" stroke-width="1.51"/><path d="M854,858L836,953L928,880Z" fill="#53ad7e" stroke="#53ad7e" stroke-width="1.51"/><path d="M773,209L786,413L933,294Z" fill="#8fd4c0" stroke="#8fd4c0" stroke-width="1.51"/><path d="M717,-26L681,99L790,149Z" fill="#b1e1d6" stroke="#b1e1d6" stroke-width="1.51"/><path d="M717,-26L790,149L810,-40Z" fill="#b1e0d5" stroke="#b1e0d5" stroke-width="1.51"/><path d="M618,1081L811,1220L849,1063Z" fill="#509f73" stroke="#509f73" stroke-width="1.51"/><path d="M836,953L672,969L849,1063Z" fill="#55a87a" stroke="#55a87a" stroke-width="1.51"/><path d="M672,969L836,953L854,858Z" fill="#58ad7f" stroke="#58ad7f" stroke-width="1.51"/><path d="M634,842L672,969L854,858Z" fill="#61b388" stroke="#61b388" stroke-width="1.51"/><path d="M821,657L658,738L854,858Z" fill="#64be96" stroke="#64be96" stroke-width="1.51"/><path d="M658,738L634,842L854,858Z" fill="#66ba92" stroke="#66ba92" stroke-width="1.51"/><path d="M817,513L663,597L821,657Z" fill="#73c7aa" stroke="#73c7aa" stroke-width="1.51"/><path d="M672,969L618,1081L849,1063Z" fill="#58a77b" stroke="#58a77b" stroke-width="1.51"/><path d="M773,209L646,229L786,413Z" fill="#9ad8c8" stroke="#9ad8c8" stroke-width="1.51"/><path d="M767,-205L717,-26L810,-40Z" fill="#b9e3da" stroke="#b9e3da" stroke-width="1.51"/><path d="M646,229L660,427L786,413Z" fill="#94d6c4" stroke="#94d6c4" stroke-width="1.51"/><path d="M786,413L660,427L817,513Z" fill="#84cfb8" stroke="#84cfb8" stroke-width="1.51"/><path d="M663,597L658,738L821,657Z" fill="#71c5a4" stroke="#71c5a4" stroke-width="1.51"/><path d="M660,427L663,597L817,513Z" fill="#7fcdb5" stroke="#7fcdb5" stroke-width="1.51"/><path d="M618,1081L663,1309L811,1220Z" fill="#529871" stroke="#529871" stroke-width="1.51"/><path d="M632,-207L717,-26L767,-205Z" fill="#c0e6de" stroke="#c0e6de" stroke-width="1.51"/><path d="M681,99L773,209L790,149Z" fill="#aaded0" stroke="#aaded0" stroke-width="1.51"/><path d="M681,99L646,229L773,209Z" fill="#aadfd1" stroke="#aadfd1" stroke-width="1.51"/><path d="M632,-207L583,-66L717,-26Z" fill="#c2e8e2" stroke="#c2e8e2" stroke-width="1.51"/><path d="M618,1081L542,1133L663,1309Z" fill="#5b9f78" stroke="#5b9f78" stroke-width="1.51"/><path d="M542,1133L547,1299L663,1309Z" fill="#599775" stroke="#599775" stroke-width="1.51"/><path d="M583,-66L681,99L717,-26Z" fill="#bbe5dd" stroke="#bbe5dd" stroke-width="1.51"/><path d="M518,238L528,429L646,229Z" fill="#a6ddd0" stroke="#a6ddd0" stroke-width="1.51"/><path d="M528,429L508,528L660,427Z" fill="#92d5c1" stroke="#92d5c1" stroke-width="1.51"/><path d="M646,229L528,429L660,427Z" fill="#9ad9c9" stroke="#9ad9c9" stroke-width="1.51"/><path d="M536,654L658,738L663,597Z" fill="#79c8a9" stroke="#79c8a9" stroke-width="1.51"/><path d="M660,427L508,528L663,597Z" fill="#87d0ba" stroke="#87d0ba" stroke-width="1.51"/><path d="M563,1027L618,1081L672,969Z" fill="#62ab81" stroke="#62ab81" stroke-width="1.51"/><path d="M634,842L522,886L672,969Z" fill="#6ab68c" stroke="#6ab68c" stroke-width="1.51"/><path d="M540,105L646,229L681,99Z" fill="#b5e3d9" stroke="#b5e3d9" stroke-width="1.51"/><path d="M583,-66L540,105L681,99Z" fill="#bde6de" stroke="#bde6de" stroke-width="1.51"/><path d="M522,886L563,1027L672,969Z" fill="#68b287" stroke="#68b287" stroke-width="1.51"/><path d="M508,528L536,654L663,597Z" fill="#83cdb4" stroke="#83cdb4" stroke-width="1.51"/><path d="M540,105L518,238L646,229Z" fill="#b4e2d8" stroke="#b4e2d8" stroke-width="1.51"/><path d="M536,654L634,842L658,738Z" fill="#73c4a0" stroke="#73c4a0" stroke-width="1.51"/><path d="M536,654L522,886L634,842Z" fill="#74c19b" stroke="#74c19b" stroke-width="1.51"/><path d="M417,781L522,886L536,654Z" fill="#7cc5a1" stroke="#7cc5a1" stroke-width="1.51"/><path d="M511,-229L583,-66L632,-207Z" fill="#cbebe5" stroke="#cbebe5" stroke-width="1.51"/><path d="M209,-223L415,-188L511,-229Z" fill="#ddf2ef" stroke="#ddf2ef" stroke-width="1.51"/><path d="M563,1027L542,1133L618,1081Z" fill="#62a97f" stroke="#62a97f" stroke-width="1.51"/><path d="M542,1133L425,1259L547,1299Z" fill="#619c79" stroke="#619c79" stroke-width="1.51"/><path d="M511,-229L415,-188L583,-66Z" fill="#d0eee9" stroke="#d0eee9" stroke-width="1.51"/><path d="M415,-188L410,-39L583,-66Z" fill="#d1edea" stroke="#d1edea" stroke-width="1.51"/><path d="M423,70L540,105L583,-66Z" fill="#c5e9e3" stroke="#c5e9e3" stroke-width="1.51"/><path d="M410,-39L423,70L583,-66Z" fill="#cbece7" stroke="#cbece7" stroke-width="1.51"/><path d="M518,238L334,411L528,429Z" fill="#a7ded0" stroke="#a7ded0" stroke-width="1.51"/><path d="M379,1016L542,1133L563,1027Z" fill="#6aad84" stroke="#6aad84" stroke-width="1.51"/><path d="M522,886L379,1016L563,1027Z" fill="#6fb48a" stroke="#6fb48a" stroke-width="1.51"/><path d="M390,216L334,411L518,238Z" fill="#b4e2d8" stroke="#b4e2d8" stroke-width="1.51"/><path d="M372,724L417,781L536,654Z" fill="#84cbab" stroke="#84cbab" stroke-width="1.51"/><path d="M390,216L518,238L540,105Z" fill="#bbe6dc" stroke="#bbe6dc" stroke-width="1.51"/><path d="M423,70L390,216L540,105Z" fill="#c4e9e1" stroke="#c4e9e1" stroke-width="1.51"/><path d="M379,1016L367,1106L542,1133Z" fill="#6ead85" stroke="#6ead85" stroke-width="1.51"/><path d="M508,528L372,724L536,654Z" fill="#88ceb3" stroke="#88ceb3" stroke-width="1.51"/><path d="M367,1106L425,1259L542,1133Z" fill="#69a57f" stroke="#69a57f" stroke-width="1.51"/><path d="M351,490L372,724L508,528Z" fill="#92d3bd" stroke="#92d3bd" stroke-width="1.51"/><path d="M351,490L508,528L528,429Z" fill="#98d6c5" stroke="#98d6c5" stroke-width="1.51"/><path d="M334,411L351,490L528,429Z" fill="#a1dbcb" stroke="#a1dbcb" stroke-width="1.51"/><path d="M417,781L379,1016L522,886Z" fill="#79bc95" stroke="#79bc95" stroke-width="1.51"/><path d="M351,490L257,531L372,724Z" fill="#98d6c0" stroke="#98d6c0" stroke-width="1.51"/><path d="M188,882L259,1017L379,1016Z" fill="#7fba93" stroke="#7fba93" stroke-width="1.51"/><path d="M222,-39L410,-39L415,-188Z" fill="#daf1ef" stroke="#daf1ef" stroke-width="1.51"/><path d="M209,-223L222,-39L415,-188Z" fill="#dff3f2" stroke="#dff3f2" stroke-width="1.51"/><path d="M188,882L379,1016L417,781Z" fill="#82bf99" stroke="#82bf99" stroke-width="1.51"/><path d="M372,724L188,882L417,781Z" fill="#88c9a6" stroke="#88c9a6" stroke-width="1.51"/><path d="M287,146L390,216L423,70Z" fill="#caece5" stroke="#caece5" stroke-width="1.51"/><path d="M410,-39L222,-39L423,70Z" fill="#d5efec" stroke="#d5efec" stroke-width="1.51"/><path d="M222,-39L287,146L423,70Z" fill="#d3efeb" stroke="#d3efeb" stroke-width="1.51"/><path d="M367,1106L266,1240L425,1259Z" fill="#6fa481" stroke="#6fa481" stroke-width="1.51"/><path d="M202,196L334,411L390,216Z" fill="#bde6dd" stroke="#bde6dd" stroke-width="1.51"/><path d="M202,196L290,424L334,411Z" fill="#b5e3d9" stroke="#b5e3d9" stroke-width="1.51"/><path d="M239,1119L266,1240L367,1106Z" fill="#73aa86" stroke="#73aa86" stroke-width="1.51"/><path d="M257,531L185,674L372,724Z" fill="#96d3ba" stroke="#96d3ba" stroke-width="1.51"/><path d="M287,146L202,196L390,216Z" fill="#c9ebe4" stroke="#c9ebe4" stroke-width="1.51"/><path d="M185,674L188,882L372,724Z" fill="#8ecdad" stroke="#8ecdad" stroke-width="1.51"/><path d="M259,1017L367,1106L379,1016Z" fill="#78b38c" stroke="#78b38c" stroke-width="1.51"/><path d="M259,1017L239,1119L367,1106Z" fill="#78b18a" stroke="#78b18a" stroke-width="1.51"/><path d="M334,411L290,424L351,490Z" fill="#a8ddce" stroke="#a8ddce" stroke-width="1.51"/><path d="M290,424L257,531L351,490Z" fill="#a4dbcc" stroke="#a4dbcc" stroke-width="1.51"/><path d="M185,674L118,834L188,882Z" fill="#8fcbab" stroke="#8fcbab" stroke-width="1.51"/><path d="M93,224L106,446L202,196Z" fill="#c2e8e1" stroke="#c2e8e1" stroke-width="1.51"/><path d="M222,-39L129,8L287,146Z" fill="#d8f1ef" stroke="#d8f1ef" stroke-width="1.51"/><path d="M129,8L202,196L287,146Z" fill="#d3efeb" stroke="#d3efeb" stroke-width="1.51"/><path d="M106,446L257,531L290,424Z" fill="#a9ddcf" stroke="#a9ddcf" stroke-width="1.51"/><path d="M202,196L106,446L290,424Z" fill="#b7e3da" stroke="#b7e3da" stroke-width="1.51"/><path d="M188,882L134,959L259,1017Z" fill="#83bc96" stroke="#83bc96" stroke-width="1.51"/><path d="M129,8L70,94L202,196Z" fill="#d7f0ee" stroke="#d7f0ee" stroke-width="1.51"/><path d="M-80,-212L88,-167L209,-223Z" fill="#eaf7f9" stroke="#eaf7f9" stroke-width="1.51"/><path d="M209,-223L88,-167L222,-39Z" fill="#e4f5f5" stroke="#e4f5f5" stroke-width="1.51"/><path d="M78,571L185,674L257,531Z" fill="#9ed7c3" stroke="#9ed7c3" stroke-width="1.51"/><path d="M239,1119L118,1141L266,1240Z" fill="#77aa87" stroke="#77aa87" stroke-width="1.51"/><path d="M118,1141L83,1261L266,1240Z" fill="#76a586" stroke="#76a586" stroke-width="1.51"/><path d="M134,959L118,1141L239,1119Z" fill="#7eb38f" stroke="#7eb38f" stroke-width="1.51"/><path d="M134,959L239,1119L259,1017Z" fill="#7eb690" stroke="#7eb690" stroke-width="1.51"/><path d="M106,446L78,571L257,531Z" fill="#a6dccc" stroke="#a6dccc" stroke-width="1.51"/><path d="M78,571L111,660L185,674Z" fill="#9dd5bf" stroke="#9dd5bf" stroke-width="1.51"/><path d="M111,660L118,834L185,674Z" fill="#96d1b5" stroke="#96d1b5" stroke-width="1.51"/><path d="M88,-167L129,8L222,-39Z" fill="#e1f4f5" stroke="#e1f4f5" stroke-width="1.51"/><path d="M70,94L93,224L202,196Z" fill="#d1eeeb" stroke="#d1eeeb" stroke-width="1.51"/><path d="M118,834L134,959L188,882Z" fill="#89c39e" stroke="#89c39e" stroke-width="1.51"/><path d="M93,224L-65,388L106,446Z" fill="#bee6df" stroke="#bee6df" stroke-width="1.51"/><path d="M111,660L-30,814L118,834Z" fill="#95cfb1" stroke="#95cfb1" stroke-width="1.51"/><path d="M88,-167L-64,-89L129,8Z" fill="#e6f6f8" stroke="#e6f6f8" stroke-width="1.51"/><path d="M-80,1012L118,1141L134,959Z" fill="#84b795" stroke="#84b795" stroke-width="1.51"/><path d="M118,834L-30,814L134,959Z" fill="#8ec6a4" stroke="#8ec6a4" stroke-width="1.51"/><path d="M-30,814L-80,1012L134,959Z" fill="#8dc19d" stroke="#8dc19d" stroke-width="1.51"/><path d="M-64,-89L70,94L129,8Z" fill="#e1f4f5" stroke="#e1f4f5" stroke-width="1.51"/><path d="M-50,492L78,571L106,446Z" fill="#acded1" stroke="#acded1" stroke-width="1.51"/><path d="M-87,636L-30,814L111,660Z" fill="#9cd4ba" stroke="#9cd4ba" stroke-width="1.51"/><path d="M-110,1151L-29,1245L118,1141Z" fill="#7eab8c" stroke="#7eab8c" stroke-width="1.51"/><path d="M-80,1012L-110,1151L118,1141Z" fill="#83b391" stroke="#83b391" stroke-width="1.51"/><path d="M-29,1245L83,1261L118,1141Z" fill="#7aa789" stroke="#7aa789" stroke-width="1.51"/><path d="M78,571L-87,636L111,660Z" fill="#a2d8c4" stroke="#a2d8c4" stroke-width="1.51"/><path d="M-110,210L-65,388L93,224Z" fill="#caebe6" stroke="#caebe6" stroke-width="1.51"/><path d="M70,94L-78,113L93,224Z" fill="#d8f1ef" stroke="#d8f1ef" stroke-width="1.51"/><path d="M-65,388L-50,492L106,446Z" fill="#b5e2d8" stroke="#b5e2d8" stroke-width="1.51"/><path d="M-64,-89L-78,113L70,94Z" fill="#e1f4f5" stroke="#e1f4f5" stroke-width="1.51"/><path d="M-78,113L-110,210L93,224Z" fill="#d6f0ed" stroke="#d6f0ed" stroke-width="1.51"/><path d="M-80,-212L-64,-89L88,-167Z" fill="#ebf7fb" stroke="#ebf7fb" stroke-width="1.51"/><path d="M-50,492L-87,636L78,571Z" fill="#a8dbcb" stroke="#a8dbcb" stroke-width="1.51"/><path d="M-161,1084L-110,1151L-80,1012Z" fill="#87b693" stroke="#87b693" stroke-width="1.51"/><path d="M-110,210L-213,256L-65,388Z" fill="#ccece6" stroke="#ccece6" stroke-width="1.51"/><path d="M-144,-46L-78,113L-64,-89Z" fill="#e6f6f7" stroke="#e6f6f7" stroke-width="1.51"/><path d="M-174,525L-87,636L-50,492Z" fill="#abddcd" stroke="#abddcd" stroke-width="1.51"/><path d="M-65,388L-142,436L-50,492Z" fill="#b8e3d9" stroke="#b8e3d9" stroke-width="1.51"/><path d="M-216,958L-80,1012L-30,814Z" fill="#90c29e" stroke="#90c29e" stroke-width="1.51"/><path d="M-191,777L-216,958L-30,814Z" fill="#96caa8" stroke="#96caa8" stroke-width="1.51"/><path d="M-87,636L-191,777L-30,814Z" fill="#9cd3b6" stroke="#9cd3b6" stroke-width="1.51"/><path d="M-110,1151L-258,1248L-29,1245Z" fill="#80a98a" stroke="#80a98a" stroke-width="1.51"/><path d="M-144,633L-191,777L-87,636Z" fill="#a2d7be" stroke="#a2d7be" stroke-width="1.51"/><path d="M-174,525L-144,633L-87,636Z" fill="#a9dbc7" stroke="#a9dbc7" stroke-width="1.51"/><path d="M-80,-212L-144,-46L-64,-89Z" fill="#ecf8fa" stroke="#ecf8fa" stroke-width="1.51"/><path d="M-142,436L-174,525L-50,492Z" fill="#b3e1d4" stroke="#b3e1d4" stroke-width="1.51"/><path d="M-217,-208L-144,-46L-80,-212Z" fill="#eff8fb" stroke="#eff8fb" stroke-width="1.51"/><path d="M-144,-46L-208,118L-78,113Z" fill="#e3f5f4" stroke="#e3f5f4" stroke-width="1.51"/><path d="M-213,256L-142,436L-65,388Z" fill="#c2e8e0" stroke="#c2e8e0" stroke-width="1.51"/><path d="M-208,118L-110,210L-78,113Z" fill="#ddf2f0" stroke="#ddf2f0" stroke-width="1.51"/><path d="M-216,958L-161,1084L-80,1012Z" fill="#8cbc97" stroke="#8cbc97" stroke-width="1.51"/><path d="M-161,1084L-258,1248L-110,1151Z" fill="#84b08e" stroke="#84b08e" stroke-width="1.51"/><path d="M-208,118L-213,256L-110,210Z" fill="#d8f1ed" stroke="#d8f1ed" stroke-width="1.51"/><path d="M-213,256L-174,525L-142,436Z" fill="#bee6dc" stroke="#bee6dc" stroke-width="1.51"/><path d="M-174,525L-191,777L-144,633Z" fill="#a6d9c3" stroke="#a6d9c3" stroke-width="1.51"/><path d="M-217,-208L-208,118L-144,-46Z" fill="#ebf7fa" stroke="#ebf7fa" stroke-width="1.51"/><path d="M-216,958L-258,1248L-161,1084Z" fill="#88b692" stroke="#88b692" stroke-width="1.51"/><path d="M-213,256L-191,777L-174,525Z" fill="#b1dfd1" stroke="#b1dfd1" stroke-width="1.51"/><path d="M-213,256L-216,958L-191,777Z" fill="#a6d9c0" stroke="#a6d9c0" stroke-width="1.51"/><path d="M-258,1248L-216,958L-213,256Z" fill="#9bcead" stroke="#9bcead" stroke-width="1.51"/><path d="M-217,-208L-213,256L-208,118Z" fill="#e6f6f5" stroke="#e6f6f5" stroke-width="1.51"/><path d="M-217,-208L-258,1248L-213,256Z" fill="#bce5da" stroke="#bce5da" stroke-width="1.51"/></svg>